<svg width="40" height="40" viewBox="0 0 40 40" fill="none" xmlns="http://www.w3.org/2000/svg">
<g clip-path="url(#clip0_211_31110)">
<path d="M19.4168 2H20.6084C24.5763 2.17833 28.0919 3.47657 31.1551 5.89474C35.0041 8.93323 37.4332 13.4469 37.8827 18.3155C38.0989 20.6605 37.8884 22.8955 37.2515 25.0206C37.1133 25.4818 36.4635 25.6209 36.1092 25.3003C35.8623 25.0773 35.8422 24.8069 35.9324 24.4771C37.4433 18.93 36.107 13.1306 32.2508 8.87084C25.9762 1.94191 15.2371 1.57116 8.52517 8.0655C8.34863 8.23618 8.21337 8.34016 8.11937 8.37745C7.40724 8.65713 6.83181 7.7392 7.39436 7.1906C10.7272 3.94295 14.7346 2.21275 19.4168 2Z" fill="#9079EA"/>
<path d="M21.5389 8.47928C23.8492 8.79052 25.9734 9.76151 27.7097 11.3069C28.2801 11.8147 27.754 12.7548 27.0484 12.5325C26.9501 12.5014 26.8064 12.4053 26.6175 12.2442C24.9318 10.8071 22.9703 9.99912 20.733 9.82032C20.2828 9.78446 20.0459 9.18064 20.2449 8.79339C20.5068 8.28351 21.0829 8.41833 21.5389 8.47928Z" fill="white"/>
<path d="M14.2283 11.6024C10.7078 14.0442 9.04016 18.4618 10.1853 22.652C10.6872 24.4869 11.6568 26.0882 13.0939 27.456C13.4546 27.7995 13.265 28.4614 12.7983 28.6163C12.4412 28.7339 12.1914 28.574 11.9245 28.3094C5.54251 21.9793 8.28867 11.1033 17.016 8.76686C17.2317 8.70901 17.4091 8.69801 17.5485 8.73387C18.2177 8.9067 18.2406 9.90996 17.5857 10.0885C16.295 10.4409 15.1759 10.9455 14.2283 11.6024Z" fill="#9079EA"/>
<path d="M5.67366 11.6555C6.38199 11.6555 6.9562 11.0801 6.9562 10.3704C6.9562 9.66062 6.38199 9.08527 5.67366 9.08527C4.96533 9.08527 4.39111 9.66062 4.39111 10.3704C4.39111 11.0801 4.96533 11.6555 5.67366 11.6555Z" fill="white"/>
<path d="M28.8609 19.939C28.8609 22.2497 27.9448 24.4658 26.3142 26.0997C24.6835 27.7336 22.4719 28.6515 20.1658 28.6515C17.8597 28.6515 15.6481 27.7336 14.0174 26.0997C12.3868 24.4658 11.4707 22.2497 11.4707 19.939C11.4707 17.6284 12.3868 15.4123 14.0174 13.7784C15.6481 12.1445 17.8597 11.2266 20.1658 11.2266C22.4719 11.2266 24.6835 12.1445 26.3142 13.7784C27.9448 15.4123 28.8609 17.6284 28.8609 19.939ZM26.688 19.939C26.688 18.206 26.001 16.5439 24.7779 15.3184C23.5549 14.093 21.8961 13.4045 20.1665 13.4045C18.4369 13.4045 16.7781 14.093 15.5551 15.3184C14.3321 16.5439 13.645 18.206 13.645 19.939C13.645 21.6721 14.3321 23.3342 15.5551 24.5596C16.7781 25.7851 18.4369 26.4735 20.1665 26.4735C21.8961 26.4735 23.5549 25.7851 24.7779 24.5596C26.001 23.3342 26.688 21.6721 26.688 19.939Z" fill="#9079EA"/>
<path d="M4.44798 14.3777C3.51374 16.9928 3.25275 19.7155 3.66499 22.5458C3.76734 23.25 2.7582 23.6251 2.37171 23.027C2.30921 22.93 2.26221 22.77 2.23072 22.5472C1.77315 19.2652 2.16297 16.1237 3.40018 13.1227C3.597 12.6451 4.27263 12.5712 4.59899 12.9685C4.94468 13.3888 4.60328 13.9431 4.44798 14.3777Z" fill="white"/>
<path d="M20.1248 30.1689C24.5464 30.1073 28.5107 27.162 29.7567 22.8822C30.2735 21.108 30.3031 19.2747 29.8455 17.3825C29.683 16.7084 30.6492 16.2444 31.0922 16.8045C31.1633 16.8943 31.2234 17.0425 31.2726 17.2491C33.0325 24.5796 27.4879 31.5931 19.9644 31.5931C19.399 31.5931 19.0534 31.051 19.3053 30.5411C19.4642 30.2191 19.7598 30.1739 20.1248 30.1689Z" fill="#9079EA"/>
<path d="M22.9488 17.3567H22.9073C22.5278 17.3567 22.2202 17.6649 22.2202 18.0451V21.9234C22.2202 22.3036 22.5278 22.6118 22.9073 22.6118H22.9488C23.3283 22.6118 23.6359 22.3036 23.6359 21.9234V18.0451C23.6359 17.6649 23.3283 17.3567 22.9488 17.3567Z" fill="white"/>
<path d="M20.0779 18.6828L19.8489 18.6824C19.5192 18.6819 19.2515 18.9492 19.2509 19.2795L19.2462 22.0103C19.2456 22.3406 19.5124 22.6089 19.842 22.6094L20.071 22.6098C20.4007 22.6104 20.6684 22.3431 20.669 22.0128L20.6737 19.282C20.6743 18.9517 20.4075 18.6834 20.0779 18.6828Z" fill="white"/>
<path d="M17.6982 21.8093C17.6982 22.2432 17.7797 22.4375 17.3339 22.5659C17.0354 22.652 16.2796 22.6563 16.2789 22.1887C16.2775 21.5863 16.2775 20.9841 16.2789 20.3822C16.2796 20.1965 16.3562 20.0882 16.5215 20.0258C16.8085 19.9168 17.6974 19.863 17.6982 20.3313C17.6991 20.8242 17.6991 21.3169 17.6982 21.8093Z" fill="white"/>
<path d="M4.44283 25.5857C4.99249 27.1111 5.71965 28.4349 6.73094 29.8555C7.04084 30.2901 6.68943 30.9162 6.16052 30.9463C5.82629 30.9649 5.65022 30.79 5.45054 30.5139C4.35599 29.0022 3.53794 27.4163 2.99639 25.7564C2.77237 25.0687 3.76291 24.5416 4.21953 25.1024C4.27821 25.1746 4.35265 25.3357 4.44283 25.5857Z" fill="#9079EA"/>
<path d="M34.8185 31.1593C36.0976 31.1593 37.1345 30.1203 37.1345 28.8386C37.1345 27.557 36.0976 26.518 34.8185 26.518C33.5394 26.518 32.5024 27.557 32.5024 28.8386C32.5024 30.1203 33.5394 31.1593 34.8185 31.1593Z" fill="white"/>
<path d="M15.9736 31.4705C16.7254 31.4705 17.3348 30.8598 17.3348 30.1065C17.3348 29.3532 16.7254 28.7426 15.9736 28.7426C15.2218 28.7426 14.6123 29.3532 14.6123 30.1065C14.6123 30.8598 15.2218 31.4705 15.9736 31.4705Z" fill="white"/>
<path d="M8.61753 31.9883C13.0986 36.2602 19.6967 37.7081 25.5468 35.5998C27.8018 34.787 29.827 33.5105 31.6225 31.7703C31.9767 31.4275 32.6245 31.6505 32.759 32.1195C32.8353 32.3849 32.7707 32.6191 32.565 32.8223C25.7093 39.5963 14.7025 39.6767 7.71431 33.0891C7.52155 32.9074 7.40775 32.7896 7.37292 32.7355C7.1489 32.3892 7.28704 31.9223 7.65348 31.7229C8.02493 31.52 8.32195 31.7065 8.61753 31.9883Z" fill="white"/>
</g>
<defs>
<clipPath id="clip0_211_31110">
<rect width="36" height="36" fill="white" transform="translate(2 2)"/>
</clipPath>
</defs>
</svg>
