<svg width="24" height="24" viewBox="0 0 24 24" fill="none" xmlns="http://www.w3.org/2000/svg">
<circle cx="12" cy="12" r="12" fill="#EDF0F4"/>
<path d="M7.88983 12.8368L8.29988 9.75592L4.74316 7.28683L7.99289 8.38761L8.76037 7.21008L11.5628 5.47119L17.7399 8.87441L18.06 14.067L15.3081 17.8912L13.1328 18.2245L14.2577 16.1655V14.1832L13.4398 12.6351L12.6087 12.0847L11.3303 13.4025V14.7972L10.3326 15.7313L9.06517 15.8848L8.50381 16.2027L7.58284 15.9089L7.1991 14.5274L7.88983 13.556V12.8368Z" fill="white"/>
<path d="M13.5682 7.26038C12.8907 7.12004 12.1495 7.15732 12.1495 7.15732C12.1495 7.15732 11.9061 8.28222 10.3975 8.57825C10.4084 8.57825 12.3907 9.25583 13.5682 7.26038Z" fill="#94A6C3"/>
<path d="M14.1834 17.4683C15.0013 16.828 15.6153 15.9465 15.8981 14.9488C15.9113 14.9115 16.0253 14.8457 16.1021 14.7953C16.2293 14.7185 16.3586 14.6549 16.3828 14.5519C16.4332 14.258 16.4595 13.951 16.4595 13.644C16.4595 13.53 16.3433 13.4138 16.2293 13.2998C16.1394 13.223 16.0494 13.1331 16.0494 13.0695C15.9223 11.9052 15.385 10.8175 14.5276 10.0259L14.4377 10.1158C15.2688 10.8965 15.806 11.9578 15.9223 13.0827C15.9354 13.1857 16.0363 13.2866 16.1394 13.3897C16.2293 13.4664 16.3323 13.5826 16.3323 13.6331C16.3323 13.9269 16.306 14.2208 16.2556 14.5146C16.2424 14.565 16.1284 14.6176 16.0385 14.6681C15.9113 14.7317 15.7951 14.7953 15.771 14.8983C15.464 15.986 14.7601 16.9332 13.8259 17.5472C13.9926 17.1898 14.5167 16.0254 14.7974 15.4356L14.7469 13.5432L13.1221 11.9709L12.2011 12.0981L11.1902 13.7361C11.1902 13.7361 11.6638 14.337 10.9972 15.0409C10.346 15.7316 9.83286 15.8851 9.83286 15.8851L9.35922 15.6285C9.49956 15.4487 9.78243 15.1812 9.99951 15.0014C10.3701 14.6944 10.7407 14.6681 10.7407 14.337C10.756 13.644 10.0127 13.8348 10.0127 13.8348L9.74296 14.0914L9.62893 15.0387L9.06757 15.7426L9.00398 15.7294L8.08301 15.5255C8.08301 15.5255 8.64656 15.2316 8.73646 14.8983C8.82637 14.5782 8.55665 13.5169 8.5435 13.4533C8.55665 13.4664 8.81321 13.6835 8.92724 14.0409C9.13117 13.4774 9.40088 12.9402 9.47763 12.8897C9.55438 12.8393 10.5894 12.2889 10.5894 12.2889L10.2451 13.1967L10.5017 13.0564L11.1156 11.5477C11.1156 11.5477 11.7165 11.2539 12.1638 11.2539C12.9686 11.2407 14.1593 10.2562 13.622 8.49097C13.7755 8.55456 16.4354 9.88559 16.8959 12.495C17.2401 14.5014 16.1021 16.3807 14.1834 17.4683Z" fill="#94A6C3"/>
<path d="M11.1399 7.54147C11.4337 7.195 11.3197 6.68408 11.3197 6.68408L10.4623 7.95152C10.4492 7.95152 10.7671 7.96468 11.1399 7.54147Z" fill="#1B314F"/>
<path d="M8.26115 14.4614L8.36421 13.9504C8.36421 13.9504 7.941 14.6916 7.90372 14.7947C7.86425 14.9109 7.93004 15.1148 8.0945 15.1017C8.26115 15.0885 8.46508 14.8451 8.46508 14.6675C8.46508 14.4372 8.26115 14.4614 8.26115 14.4614Z" fill="#1B314F"/>
<path fill-rule="evenodd" clip-rule="evenodd" d="M15.8583 6.32621C15.8583 6.32621 16.4986 6.35253 17.163 6.42928C15.6653 5.25174 14.2466 4.90747 13.0954 4.90747C11.5589 4.90747 10.5023 5.52121 10.3787 5.59303L10.3697 5.59821L10.8697 4.80441C10.8697 4.80441 8.87423 4.61145 8.17035 6.72311C7.99054 6.27578 7.82608 5.62233 7.82608 5.62233C7.82608 5.62233 6.78888 6.53234 7.27568 8.04098C6.08499 7.60681 4.38558 7.00379 4.31979 6.99283C4.22989 6.97967 4.20357 7.01914 4.20357 7.01914C4.20357 7.01914 4.17726 7.05642 4.25401 7.1222C4.39654 7.23403 7.08272 9.21852 7.67258 9.60226C7.5454 10.0627 7.5454 10.2798 7.67258 10.4969C7.85239 10.7908 7.86335 10.9442 7.83923 11.1613C7.81292 11.3784 7.58268 13.2598 7.53224 13.4901C7.51177 13.5835 7.41108 13.7738 7.30029 13.9832C7.13815 14.2897 6.95436 14.637 6.96869 14.7816C6.99501 15.025 7.32612 16.06 7.62215 16.1763C7.83923 16.253 8.37647 16.4197 8.73389 16.4197C8.86108 16.4197 8.9773 16.3934 9.02773 16.3429C9.24482 16.1521 9.30841 16.1127 9.4619 16.1127H9.49918C9.52822 16.1127 9.56001 16.1154 9.59455 16.1184L9.59457 16.1184H9.59458H9.5946C9.63566 16.122 9.6806 16.1258 9.72943 16.1258C9.93336 16.1258 10.2031 16.0864 10.3938 15.9087C10.5256 15.777 10.7027 15.6226 10.8695 15.4772C11.0581 15.3128 11.2334 15.1599 11.3148 15.0645C11.5078 14.8211 11.6087 14.49 11.5582 14.1567C11.5187 13.8497 11.6854 13.58 11.8784 13.3125C12.1218 12.9923 12.5691 12.4178 12.5691 12.4178C13.4528 13.08 14.0032 14.0909 14.0032 15.2158C14.0032 17.2113 12.2643 18.823 10.1154 18.823C9.78205 18.823 9.4641 18.7857 9.14395 18.7089C10.1285 19.0532 10.9596 19.1694 11.6394 19.1694C13.0844 19.1694 13.8519 18.6454 13.8519 18.6454C13.8519 18.6454 13.5844 18.9918 13.148 19.3865H13.1612C15.5535 19.0532 16.7179 17.0841 16.7179 17.0841C16.7179 17.0841 16.628 17.7244 16.5139 18.1586C19.6207 15.8226 19.1817 12.9138 19.1471 12.6841L19.1453 12.6722C19.158 12.6901 19.2389 12.7886 19.3378 12.9089C19.4441 13.0381 19.571 13.1926 19.6562 13.2993C20.1693 8.02783 15.8583 6.32621 15.8583 6.32621ZM10.6311 15.0572L10.631 15.0572L10.5388 15.1411C10.4887 15.1869 10.4371 15.2328 10.3861 15.2782L10.3861 15.2782C10.2807 15.3719 10.1771 15.464 10.0914 15.5512C10.041 15.6016 9.93795 15.6279 9.78445 15.6279H9.64411H9.56737H9.51693H9.40071C9.59368 15.3714 10.155 14.7837 10.348 14.6565C10.5782 14.503 10.6945 14.3495 10.5519 14.082C10.4116 13.8123 10.041 13.8781 10.041 13.8781C10.041 13.8781 10.2581 13.7882 10.4511 13.7882C10.2077 13.7246 9.90067 13.7882 9.76033 13.9285C9.65806 14.022 9.63561 14.2752 9.61321 14.5277C9.60199 14.6543 9.59078 14.7806 9.56956 14.8868C9.51241 15.1863 9.33126 15.3513 9.05319 15.6045L9.05315 15.6045L9.05257 15.605C9.02144 15.6334 8.98909 15.6628 8.95557 15.6937C8.77577 15.8604 8.64858 15.9108 8.54552 15.9108C8.32843 15.8735 8.07188 15.8077 7.89207 15.7441C7.76488 15.5775 7.57192 15.0271 7.52148 14.7969C7.54857 14.7045 7.63701 14.5368 7.71278 14.3932C7.7413 14.3391 7.76802 14.2884 7.78901 14.2465L7.81102 14.2044C7.95112 13.9364 8.03369 13.7785 8.05872 13.6325C8.10915 13.4154 8.27581 12.0712 8.3394 11.5099C8.50605 11.7269 8.73629 12.0866 8.68367 12.3168C9.05425 11.7927 8.78673 11.2796 8.65735 11.0757C8.54333 10.8717 8.38983 10.4617 8.51701 10.0275C8.6442 9.59335 9.10469 8.3895 9.10469 8.3895C9.10469 8.3895 9.25818 8.65922 9.47527 8.60659C9.69236 8.55615 11.4444 5.92041 11.4444 5.92041C11.4444 5.92041 11.918 6.95541 11.4181 7.71193C10.9072 8.46625 10.4072 8.60659 10.4072 8.60659C10.4072 8.60659 11.1111 8.73377 11.7624 8.26013C12.0299 8.88727 12.2864 9.53853 12.2996 9.62843C12.2904 9.64931 12.2558 9.73158 12.2075 9.84656C12.0476 10.2266 11.7375 10.9641 11.6988 11.0231C11.6725 11.0494 11.4948 11.0998 11.3655 11.1261C11.1484 11.1897 11.0212 11.2292 10.9686 11.2665C10.8787 11.3432 10.4686 12.4681 10.2778 13.0185C10.0476 13.0821 9.81734 13.2115 9.65069 13.4658C9.7406 13.4022 10.0213 13.3628 10.2274 13.3386C10.4072 13.3255 10.9554 13.6193 11.0979 14.1697V14.196C11.1264 14.3978 11.0629 14.5907 10.9598 14.7442C10.9189 14.7958 10.7684 14.9325 10.6311 15.0572ZM9.86667 14.4418C9.85957 14.5657 9.84806 14.7668 9.75684 14.8976C9.78096 14.8713 9.96077 14.6783 10.0529 14.5906C10.093 14.5539 10.1384 14.5251 10.1817 14.4976L10.1817 14.4976C10.2757 14.4379 10.3599 14.3845 10.3599 14.2704C10.3599 14.0928 10.1165 14.0533 10.0134 14.0797C9.91061 14.1037 9.88634 14.2695 9.87316 14.3596L9.87305 14.3603C9.87022 14.3797 9.86861 14.4078 9.86667 14.4418ZM14.8616 12.4531C14.9887 11.8019 15.0019 11.2383 14.9646 10.7778C15.4624 11.4423 15.7694 12.2492 15.8593 13.0803C15.8724 13.1833 15.9733 13.2842 16.0764 13.3873C16.1663 13.464 16.2693 13.5671 16.2693 13.6307C16.2693 13.9245 16.243 14.2183 16.1926 14.5144C16.1794 14.5516 16.0654 14.6174 15.9755 14.6679C15.8483 14.7314 15.7321 14.795 15.708 14.8981C15.4273 15.8827 14.8243 16.7532 14.0195 17.3672C15.208 16.1261 15.7825 14.078 14.8616 12.4531ZM15.8067 14.9354C15.526 15.9463 14.8857 16.8409 14.0546 17.4812C15.8198 16.637 17.0346 14.8323 17.0346 12.7601C17.0346 10.063 14.9865 7.83731 12.364 7.55444C12.2762 7.69478 12.1863 7.82196 12.0964 7.92503L12.0978 7.92839C12.2896 8.40451 12.7872 9.63994 12.7872 9.70339C12.7872 9.78013 12.5438 10.4051 12.5175 10.4314C12.4933 10.4446 12.1995 10.4709 12.0833 10.4709C11.9561 10.7779 11.8289 11.0717 11.8026 11.1112C11.7631 11.1616 11.6491 11.2011 11.4057 11.2647C11.3852 11.2706 11.3632 11.2768 11.3405 11.2832C11.22 11.3173 11.0814 11.3565 11.0592 11.3787C10.9957 11.4554 10.6492 12.3633 10.4189 13.0035C10.7259 12.9509 10.9957 13.0145 11.0592 13.0408C11.5592 12.0935 11.9539 11.5826 12.057 11.5826C12.0675 11.5815 12.0895 11.5823 12.1212 11.5835C12.4 11.5942 13.4231 11.6332 13.8485 10.6112C14.302 9.50326 13.6643 8.55697 13.6199 8.49098C13.6192 8.48997 13.6186 8.48917 13.6182 8.48858C13.6187 8.48879 13.6193 8.48911 13.6203 8.48956C13.677 8.51712 14.6705 8.99987 14.923 10.5103C15.4975 11.2405 15.868 12.122 15.9711 13.0562C15.9711 13.1034 16.0279 13.1651 16.0832 13.2252C16.1024 13.246 16.1214 13.2666 16.1378 13.2864C16.2518 13.4004 16.368 13.5167 16.368 13.6307C16.368 13.9377 16.3417 14.2447 16.2913 14.5385C16.2671 14.6416 16.1378 14.7183 16.0106 14.7819C15.996 14.7915 15.9801 14.8016 15.9637 14.812C15.8941 14.8563 15.8173 14.9052 15.8067 14.9354Z" fill="#1B314F"/>
<path d="M10.6531 10.5742C10.8965 10.2935 10.7693 9.76942 10.3198 9.67951C10.436 9.41199 10.6005 8.87476 10.6005 8.87476C10.6005 8.87476 9.29576 10.9206 9.18173 10.9601C9.06552 10.9996 8.95149 10.5501 8.95149 10.5501C8.70809 11.4842 9.36154 11.6114 9.43829 11.3175C9.79572 11.2254 10.4097 10.8417 10.6531 10.5742Z" fill="#1B314F"/>
<path d="M9.53906 11.0719L10.2035 9.93384C10.2035 9.93384 10.5872 10.1268 10.3943 10.4338C10.153 10.7912 9.53906 11.0719 9.53906 11.0719Z" fill="#FFD923"/>
<path d="M17.765 16.3432C17.572 16.5998 17.355 16.8673 17.1006 17.1239C18.7496 13.9509 17.1773 11.0476 17.1137 10.9336C17.23 11.0498 17.344 11.177 17.447 11.291C18.7123 12.6966 18.8658 14.8083 17.765 16.3432Z" fill="#D82122"/>
<path d="M19.2998 12.2622C18.7231 10.714 17.9052 9.39617 16.1027 8.20767C14.3639 7.05645 12.4956 7.14636 12.3925 7.15951C12.3794 7.15951 12.3662 7.15951 12.3662 7.15951C12.4298 7.1332 12.4934 7.12004 12.557 7.10908C12.9539 6.9819 13.4648 6.87884 13.9779 6.81524C15.3353 6.62009 16.7036 7.08057 17.6377 8.06733C17.6509 8.08049 17.6509 8.08049 17.664 8.09365C18.7253 9.21855 19.2757 10.6241 19.2998 12.2622Z" fill="#D82122"/>
<path d="M15.6931 5.92983C13.7876 5.5724 12.5596 5.75002 11.6759 6.08332C11.6496 5.98026 11.5597 5.77633 11.483 5.60968C11.2176 5.92983 10.9348 6.31357 10.7571 6.55697C10.2703 6.89027 10.0664 7.21042 10.0664 7.21042C10.3471 6.24997 11.1672 5.53512 12.1649 5.35531C12.4456 5.30488 12.7526 5.27856 13.0859 5.27856C13.9674 5.29172 14.8489 5.50881 15.6931 5.92983Z" fill="#D82122"/>
<path d="M8.6449 8.38531C7.14941 8.33487 7.64718 6.59379 7.67349 6.49292C7.67349 6.50608 7.77436 7.86123 8.6449 8.38531Z" fill="#D82122"/>
<path d="M10.1155 5.2522C8.96429 5.94293 9.19453 7.59191 9.19453 7.59191C8.09375 5.91881 10.0256 5.29167 10.1155 5.2522Z" fill="#D82122"/>
<path d="M8.22305 8.84604C8.29979 8.90963 8.37654 9.02585 8.28664 9.19251C8.2362 9.28241 8.15946 9.26925 8.04324 9.21882C7.88974 9.14207 6.96877 8.60484 6.1377 8.05444C7.08498 8.38775 8.04324 8.74517 8.19673 8.82192C8.19673 8.82192 8.20989 8.83508 8.22305 8.84604Z" fill="white"/>
</svg>
