<svg width="24" height="24" viewBox="0 0 24 24" fill="none" xmlns="http://www.w3.org/2000/svg">
<path fill-rule="evenodd" clip-rule="evenodd" d="M12 24C5.4 24 0 18.6001 0 11.9402C0.06 5.34038 5.4 -0.0595036 12.06 0.000495204C18.66 0.060494 24 5.40038 24 12.1202C23.94 18.6601 18.6 24 12 24Z" fill="#E42D04"/>
<path fill-rule="evenodd" clip-rule="evenodd" d="M12.2318 20.7992C13.1028 20.7992 15.3371 20.4065 17.3063 18.8359C19.5706 17.0299 19.7839 16.0226 19.9216 15.3732C19.9335 15.3167 19.9449 15.2628 19.9571 15.2114C19.98 15.1141 19.9934 14.9819 19.998 14.8249C19.5224 14.7479 18.8558 14.7038 18.0778 14.7961C16.8054 14.9471 15.8057 15.8155 15.4648 16.2308C15.2755 15.2869 14.3515 13.3992 12.1702 13.3992C9.98899 13.3992 8.81253 15.2869 8.49696 16.2308C8.29499 15.8784 7.54266 15.0981 6.14909 14.7961C5.28743 14.6094 4.53581 14.7016 3.99805 14.8588C4.0405 15.5606 4.27121 16.3093 4.88523 17.0992C5.94177 18.4584 7.58111 19.2976 8.31251 19.6721C8.39378 19.7137 8.46384 19.7496 8.52064 19.7798C9.08867 20.0818 10.6413 20.7992 12.2318 20.7992Z" fill="white"/>
<path fill-rule="evenodd" clip-rule="evenodd" d="M19.9962 14.7975C19.5209 14.7207 18.8546 14.6767 18.0771 14.7688C16.8054 14.9194 15.8063 15.7853 15.4657 16.1994C15.2764 15.2582 14.353 13.3759 12.173 13.3759C9.993 13.3759 8.81722 15.2582 8.50183 16.1994C8.29998 15.848 7.54809 15.07 6.15532 14.7688C5.29417 14.5826 4.54298 14.6746 4.00553 14.8314C3.96684 14.1931 4.08459 13.5937 4.21095 13.0371C4.42289 12.1034 4.95527 10.8661 5.19497 10.3641C4.9805 9.84961 4.48345 8.39141 4.21095 6.67471C3.93845 4.958 4.40018 3.80098 4.66511 3.43706C5.09404 3.55 6.11843 3.90388 6.78454 4.41588C7.45065 4.92788 8.47503 6.0598 8.90397 6.56177C9.45905 6.41118 10.8871 6.11 12.1588 6.11C13.4305 6.11 14.6567 6.41118 15.1109 6.56177C15.4894 6.11 16.4204 5.04836 17.1168 4.41588C17.8131 3.78341 18.946 3.47471 19.4254 3.39941C19.5515 3.56255 19.819 4.03941 19.8796 4.64177C19.9553 5.39471 19.7282 6.97588 19.4254 8.03C19.1832 8.8733 18.8703 9.86216 18.7442 10.2512C18.8072 10.3892 19.0243 10.8385 19.3876 11.5312C19.7729 12.2657 20.0219 13.9214 19.9962 14.7975Z" fill="#FFAA35"/>
<path d="M13.7855 18.148C13.6955 18.2684 13.598 18.4993 13.5605 18.5996V18.562L13.448 17.6588C13.2356 17.6838 12.683 17.734 12.173 17.734C11.663 17.734 11.0605 17.6838 10.823 17.6588L10.7855 18.562C10.7605 18.5243 10.6955 18.419 10.6355 18.2985C10.5605 18.148 10.298 17.9222 10.298 17.8093C10.298 17.719 10.173 17.5208 10.1105 17.433L9.99805 17.2824H10.673L10.823 17.3953C10.948 17.3828 11.2655 17.3728 11.5355 17.433C11.8055 17.4932 11.973 17.2574 12.023 17.1319V16.5298C11.9105 16.4545 11.633 16.2814 11.423 16.1911C11.1605 16.0782 10.898 15.6266 10.973 15.175C11.048 14.7234 11.273 14.5728 11.423 14.6105C11.573 14.6481 12.548 14.5728 12.698 14.6105C12.848 14.6481 13.1105 14.7234 13.223 14.9115C13.3355 15.0997 13.2605 15.8524 13.0355 16.1158C12.8555 16.3266 12.5105 16.4796 12.3605 16.5298V17.1319C12.3605 17.2072 12.623 17.3953 12.6605 17.433C12.698 17.4706 13.2605 17.433 13.373 17.433C13.463 17.433 13.5356 17.3577 13.5605 17.3201H14.198V17.4706C14.198 17.5459 14.0855 17.8846 14.048 17.9222C14.0105 17.9598 13.898 17.9975 13.7855 18.148Z" fill="black"/>
<path d="M12.5794 17.8996L12.1984 18.1996L11.8937 17.8996L11.627 18.0329L11.3984 17.7996H12.9984L12.7699 18.0662L12.5794 17.8996Z" fill="black"/>
<path d="M8.4798 11.7458C8.03349 11.5612 7.54999 11.4381 7.36403 11.3997C7.31444 11.4253 7.21526 11.5074 7.21526 11.6304C7.21526 11.7843 7.17807 11.9381 7.21526 12.2458C7.25245 12.5535 7.54999 12.7458 8.07069 12.9766C8.59138 13.2074 9.484 13.3997 10.1163 13.3997C10.7485 13.3997 10.1535 12.7458 9.93031 12.592C9.70715 12.4381 9.03769 11.9766 8.4798 11.7458Z" fill="black"/>
<path d="M9.08981 10.7249C8.75628 10.7845 8.29388 10.7994 8.10438 10.7994C7.91487 10.7746 7.51312 10.6578 7.42215 10.3894C7.30845 10.0539 7.61166 9.68107 7.99067 9.49468C8.36969 9.30829 8.86241 9.38285 9.16562 9.83018C9.46883 10.2775 9.50673 10.6503 9.08981 10.7249Z" fill="white"/>
<path d="M15.9175 11.5459C16.3638 11.3612 16.8473 11.2382 17.0332 11.1997C17.0829 11.2253 17.182 11.3074 17.182 11.4305C17.182 11.5843 17.2192 11.7382 17.182 12.0459C17.1448 12.3536 16.8473 12.5459 16.3266 12.7766C15.8059 13.0074 14.9133 13.1997 14.281 13.1997C13.6487 13.1997 14.2438 12.5459 14.467 12.392C14.6901 12.2382 15.3596 11.7766 15.9175 11.5459Z" fill="black"/>
<path d="M14.7066 10.7249C15.0401 10.7845 15.5025 10.7994 15.692 10.7994C15.8815 10.7746 16.2833 10.6578 16.3742 10.3894C16.4879 10.0539 16.1847 9.68107 15.8057 9.49468C15.4267 9.30829 14.934 9.38285 14.6308 9.83018C14.3276 10.2775 14.2897 10.6503 14.7066 10.7249Z" fill="white"/>
<path d="M6.4837 7.93405C6.21116 8.23173 5.68878 8.9015 5.46165 9.19917C5.31024 8.87669 4.97713 8.01591 4.85599 7.15266C4.73486 6.2894 4.83076 4.95731 4.89385 4.39917C5.05788 4.41158 5.53736 4.54801 6.14302 4.99452C6.74868 5.44103 7.63194 6.27204 7.99785 6.63173C7.60669 6.94181 6.75625 7.63638 6.4837 7.93405Z" fill="#FF8C30"/>
<path fill-rule="evenodd" clip-rule="evenodd" d="M4.79785 5.10795C5.39314 5.35637 6.17674 5.7361 6.50512 6.07932C6.83824 6.42747 7.13129 6.88835 7.30526 7.19917C7.56645 6.98261 7.826 6.77456 7.99785 6.63937C7.62786 6.27845 6.73477 5.4446 6.12237 4.99656C5.50997 4.54852 5.02515 4.41162 4.85929 4.39917C4.83949 4.57302 4.81649 4.82172 4.79785 5.10795Z" fill="#FF9A32"/>
<path d="M17.3115 7.93405C17.5841 8.23173 18.1064 8.9015 18.3336 9.19917C18.485 8.87669 18.8181 8.01591 18.9392 7.15266C19.0604 6.2894 18.9644 4.95731 18.9014 4.39917C18.7373 4.41158 18.2579 4.54801 17.6522 4.99452C17.0465 5.44103 16.1633 6.27204 15.7974 6.63173C16.1885 6.94181 17.039 7.63638 17.3115 7.93405Z" fill="#FF8C30"/>
<path fill-rule="evenodd" clip-rule="evenodd" d="M18.9974 5.10795C18.402 5.35637 17.6185 5.7361 17.2901 6.07932C16.9569 6.42747 16.6639 6.88835 16.49 7.19917C16.2288 6.98261 15.9692 6.77456 15.7974 6.63937C16.1673 6.27845 17.0604 5.4446 17.6728 4.99656C18.2852 4.54852 18.77 4.41162 18.9359 4.39917C18.9557 4.57302 18.9787 4.82172 18.9974 5.10795Z" fill="#FF9A32"/>
</svg>
