<svg width="24" height="24" viewBox="0 0 24 24" fill="none" xmlns="http://www.w3.org/2000/svg">
<path d="M12 24C18.65 24 24 18.65 24 12C24 5.34996 18.65 0 12 0C5.34996 0 0 5.34996 0 12C0 18.65 5.34996 24 12 24Z" fill="#2775CA"/>
<path d="M15.2986 13.9003C15.2986 12.1504 14.2486 11.5504 12.1486 11.3004C10.6486 11.1004 10.3486 10.7004 10.3486 10.0003C10.3486 9.30026 10.8486 8.85038 11.8486 8.85038C12.7486 8.85038 13.2486 9.15038 13.4986 9.90038C13.5486 10.0504 13.6986 10.1503 13.8486 10.1503H14.6486C14.8486 10.1503 14.9986 10.0003 14.9986 9.80042V9.75038C14.7986 8.65034 13.8986 7.80038 12.7486 7.70042V6.50042C12.7486 6.30038 12.5986 6.15038 12.3486 6.10034H11.5986C11.3986 6.10034 11.2486 6.25034 11.1986 6.50042V7.65038C9.69855 7.85042 8.74863 8.85038 8.74863 10.1004C8.74863 11.7504 9.74859 12.4003 11.8486 12.6504C13.2486 12.9004 13.6986 13.2004 13.6986 14.0004C13.6986 14.8005 12.9986 15.3504 12.0486 15.3504C10.7486 15.3504 10.2986 14.8003 10.1486 14.0503C10.0986 13.8504 9.94863 13.7503 9.79863 13.7503H8.94855C8.74863 13.7503 8.59863 13.9003 8.59863 14.1004V14.1504C8.79855 15.4003 9.59859 16.3003 11.2486 16.5504V17.7504C11.2486 17.9503 11.3986 18.1003 11.6486 18.1504H12.3986C12.5986 18.1504 12.7486 18.0004 12.7986 17.7504V16.5504C14.2986 16.3003 15.2986 15.2503 15.2986 13.9003Z" fill="white"/>
<path fill-rule="evenodd" clip-rule="evenodd" d="M5.00101 9.54894C3.55093 13.399 5.55097 17.749 9.45097 19.1489C9.60097 19.249 9.75097 19.4489 9.75097 19.5989V20.299C9.75097 20.399 9.75097 20.449 9.70093 20.4989C9.65101 20.699 9.45097 20.7989 9.25093 20.699C6.45097 19.799 4.30093 17.6489 3.40093 14.849C1.90093 10.099 4.50097 5.04894 9.25093 3.54894C9.30097 3.49902 9.40093 3.49902 9.45097 3.49902C9.65101 3.54894 9.75097 3.69894 9.75097 3.89898V4.59894C9.75097 4.84902 9.65101 4.99902 9.45097 5.09898C7.40101 5.84898 5.75101 7.44894 5.00101 9.54894ZM14.3 3.74926C14.35 3.54922 14.55 3.44926 14.75 3.54922C17.5 4.44922 19.7 6.59926 20.6 9.44926C22.1 14.1992 19.5 19.2493 14.75 20.7493C14.7 20.7992 14.6 20.7992 14.55 20.7992C14.35 20.7493 14.25 20.5993 14.25 20.3993V19.6993C14.25 19.4492 14.35 19.2992 14.55 19.1993C16.6 18.4493 18.25 16.8493 19 14.7493C20.45 10.8992 18.45 6.54922 14.55 5.1493C14.4 5.04922 14.25 4.8493 14.25 4.64926V3.9493C14.25 3.84922 14.25 3.7993 14.3 3.74926Z" fill="white"/>
</svg>
