<svg width="24" height="24" viewBox="0 0 24 24" fill="none" xmlns="http://www.w3.org/2000/svg">
<path d="M23.6383 14.9029C22.0356 21.3315 15.5244 25.2438 9.09503 23.6407C2.66833 22.0381 -1.24401 15.5265 0.359382 9.09837C1.96137 2.66903 8.47253 -1.24361 14.8999 0.359081C21.3289 1.96177 25.241 8.47405 23.6381 14.903L23.6382 14.9029H23.6383Z" fill="#50AF95"/>
<path fill-rule="evenodd" clip-rule="evenodd" d="M13.5205 13.36C13.4356 13.3664 12.9972 13.3925 12.0193 13.3925C11.2415 13.3925 10.6893 13.3692 10.4955 13.36C7.48969 13.2278 5.24609 12.7045 5.24609 12.078C5.24609 11.4516 7.48969 10.929 10.4955 10.7947V12.8389C10.6921 12.853 11.2549 12.8863 12.0327 12.8863C12.9661 12.8863 13.4335 12.8474 13.5176 12.8396V10.7961C16.5171 10.9297 18.7558 11.453 18.7558 12.078C18.7558 12.7031 16.5178 13.2264 13.5176 13.3593L13.5205 13.36ZM13.5199 10.5845V8.75529H17.7059V5.96582H6.30898V8.75529H10.4942V10.5838C7.09243 10.7401 4.53418 11.414 4.53418 12.2215C4.53418 13.0289 7.09243 13.7021 10.4942 13.8591V19.7209H13.5192V13.857C16.9132 13.7007 19.4672 13.0275 19.4672 12.2207C19.4672 11.414 16.9153 10.7408 13.5192 10.5838L13.5199 10.5845Z" fill="white"/>
</svg>
